<?xml version="1.0" encoding="utf-8"?>
<!-- Generator: Adobe Illustrator 15.0.0, SVG Export Plug-In . SVG Version: 6.00 Build 0)  -->
<!DOCTYPE svg PUBLIC "-//W3C//DTD SVG 1.1//EN" "http://www.w3.org/Graphics/SVG/1.1/DTD/svg11.dtd">
<svg version="1.1" id="Layer_1" xmlns="http://www.w3.org/2000/svg" xmlns:xlink="http://www.w3.org/1999/xlink" x="0px" y="0px"
	 width="841.458px" height="841.68px" viewBox="-12.389 176.664 841.458 841.68"
	 enable-background="new -12.389 176.664 841.458 841.68" xml:space="preserve">
<title>Security-Safe-Logo</title>
<g id="Symbols">
	<g id="large-logo">
		<g id="Security-Safe-Logo">
			<path id="Shape" fill="#0081A6" d="M589.464,357.765c0,0-91.382-35.378-184.998-35.378c-93.621,0-185.003,35.378-185.003,35.378
				s-3.532,133.46,44.584,230.221c48.109,96.762,142.647,152.718,142.647,152.718s93.67-58.775,142.65-163.783
				C598.328,471.907,589.464,357.765,589.464,357.765z M242.914,379.621l0.166-6.598l6.248-2.135
				c1.997-0.683,33.023-11.144,75.366-18.624c-9.572,5.651-18.859,12.336-25.075,17.331c-24.658,19.798-44.516,40.433-55.496,52.574
				C242.517,397.932,242.869,381.382,242.914,379.621z M246.124,445.47c10.966,10.441,30.466,25.759,61.178,39.413
				c50.701,22.545,96.982,31.894,96.982,31.894s39.15-11.388,80.261-35.229c41.114-23.841,51.222-33.722,51.222-33.722
				s-59.073,3.141-107.012-5.105c-57.413-9.88-76.993-24.185-76.993-24.185s19.58-18.052,46.326-34.061
				c28.062-16.792,61.938-29.961,73.528-34.263c48.606,7.442,85.649,19.929,87.831,20.678l5.938,2.022l0.462,6.253
				c0.147,2.02,1.833,26.678-1.351,61.686c-12.23,11.777-59.433,53.461-144.868,85.318
				c-81.565,30.409-132.901,38.907-144.363,40.547C258.045,526.939,249.917,481.599,246.124,445.47z M527.467,578.154
				c-17.099,10.696-53.628,31.38-104.584,48.489c-55.756,18.729-82.075,23.558-90.478,24.746c-3.079-3.252-6.157-6.64-9.225-10.154
				c10.689-2.636,52.41-13.329,106.228-32.646c49.142-17.635,91.346-43.666,109.396-55.597c-2.104,5.289-4.352,10.565-6.783,15.81
				C530.549,571.978,529.021,575.083,527.467,578.154z"/>
			<path id="Security" fill="#0081A6" d="M11.522,863.778l3.511-11.144c5.954,3.816,14.502,6.717,23.661,6.717
				c13.586,0,21.524-7.175,21.524-17.555c0-9.465-5.496-15.113-19.387-20.303c-16.792-6.106-27.172-14.96-27.172-29.31
				c0-16.028,13.281-27.936,33.278-27.936c10.381,0,18.166,2.442,22.593,5.037l-3.664,10.839
				c-3.206-1.984-10.075-4.885-19.387-4.885c-14.044,0-19.387,8.396-19.387,15.418c0,9.617,6.259,14.35,20.456,19.845
				c17.402,6.717,26.104,15.112,26.104,30.226c0,15.876-11.602,29.767-35.874,29.767C27.856,870.495,17.018,867.442,11.522,863.778z
				 M151.613,834.316H99.711c0.305,18.166,11.754,25.646,25.34,25.646c9.617,0,15.57-1.68,20.456-3.816l2.442,9.617
				c-4.732,2.137-12.976,4.731-24.73,4.731c-22.745,0-36.332-15.112-36.332-37.399s13.128-39.69,34.652-39.69
				c24.272,0,30.531,21.066,30.531,34.652C152.071,830.806,151.918,832.79,151.613,834.316z M99.864,824.699h39.232
				c0.153-8.396-3.511-21.677-18.624-21.677C106.733,803.022,100.933,815.388,99.864,824.699z M218.889,856.146l2.29,10.074
				c-3.511,1.68-11.296,4.274-21.219,4.274c-22.288,0-36.79-15.112-36.79-37.705c0-22.745,15.571-39.385,39.69-39.385
				c7.938,0,14.96,1.985,18.624,3.97l-3.053,10.228c-3.206-1.68-8.244-3.511-15.571-3.511c-16.944,0-26.104,12.67-26.104,27.936
				c0,17.097,10.991,27.63,25.646,27.63C210.035,859.657,215.072,857.825,218.889,856.146z M298.528,794.933v53.581
				c0,7.785,0.153,14.502,0.611,20.303h-11.907l-0.763-12.06h-0.305c-3.358,5.953-11.296,13.738-24.424,13.738
				c-11.602,0-25.493-6.563-25.493-32.362v-43.2h13.433v40.758c0,14.044,4.427,23.661,16.487,23.661
				c9.006,0,15.265-6.259,17.708-12.364c0.764-1.832,1.221-4.274,1.221-6.87v-45.185H298.528z M370.85,811.857
				c2.896-2.078,8.181-6.281,13.33-12.387v69.477h-13.33V811.857z M377.264,791.412c0,0-5.905-3.496-8.915-9.545
				c-2.998-6.038-2.78-14.378-2.78-14.378s5.707-2.211,11.559-2.211c5.849,0,11.555,2.211,11.555,2.211s0.557,7.131-2.505,13.691
				C383.114,787.743,377.264,791.412,377.264,791.412z M320.618,868.816v-50.834c0-8.701-0.152-16.181-0.61-23.05h11.754
				l0.61,14.654h0.458c3.358-9.923,11.602-16.182,20.608-16.182c1.374,0,2.442,0.153,3.664,0.306v12.67
				c-1.374-0.305-2.748-0.305-4.58-0.305c-9.464,0-16.181,7.021-18.013,17.097c-0.306,1.832-0.458,4.122-0.458,6.259v39.385H320.618
				z M409.525,781.193l13.128-3.969v17.708h19.234v10.228h-19.234v39.842c0,9.16,2.595,14.35,10.075,14.35
				c3.663,0,5.801-0.305,7.785-0.916l0.61,10.229c-2.595,0.915-6.717,1.831-11.906,1.831c-6.259,0-11.297-2.137-14.502-5.647
				c-3.664-4.122-5.19-10.686-5.19-19.388v-40.3h-11.449v-10.228h11.449V781.193z M448.407,794.933h14.654l16.028,43.658
				c1.832,4.885,3.664,10.686,4.885,15.113h0.306c1.374-4.428,2.9-10.075,4.732-15.418l14.654-43.354h14.197l-20.15,52.665
				c-9.617,25.34-16.182,38.163-25.341,46.254c-6.717,5.648-13.128,7.938-16.486,8.549l-3.358-11.145
				c3.358-1.068,7.785-3.205,11.754-6.563c3.664-2.9,8.091-8.091,11.297-14.96c0.61-1.374,1.068-2.442,1.068-3.206
				c0-0.763-0.305-1.832-1.068-3.511L448.407,794.933z"/>
			<path id="Safe" fill="#DAA520" d="M544.91,863.778l3.512-11.144c5.953,3.816,14.502,6.717,23.661,6.717
				c13.586,0,21.523-7.175,21.523-17.555c0-9.465-5.495-15.113-19.387-20.303c-16.792-6.106-27.172-14.96-27.172-29.31
				c0-16.028,13.28-27.936,33.278-27.936c10.38,0,18.165,2.442,22.593,5.037l-3.664,10.839c-3.206-1.984-10.075-4.885-19.387-4.885
				c-14.044,0-19.387,8.396-19.387,15.418c0,9.617,6.259,14.35,20.455,19.845c17.402,6.717,26.104,15.112,26.104,30.226
				c0,15.876-11.602,29.767-35.873,29.767C561.244,870.495,550.406,867.442,544.91,863.778z M677.063,823.479v27.63
				c0,6.411,0.305,12.67,1.068,17.708h-12.06l-1.068-9.312h-0.458c-4.122,5.801-12.06,10.99-22.593,10.99
				c-14.96,0-22.593-10.532-22.593-21.219c0-17.86,15.876-27.63,44.422-27.478v-1.526c0-5.953-1.679-17.097-16.792-16.944
				c-7.021,0-14.196,1.984-19.387,5.495l-3.053-9.006c6.105-3.816,15.112-6.412,24.424-6.412
				C671.567,793.405,677.063,808.823,677.063,823.479z M664.088,843.934v-12.822c-14.655-0.306-31.294,2.289-31.294,16.639
				c0,8.854,5.801,12.823,12.518,12.823c9.77,0,16.028-6.106,18.165-12.365C663.935,846.682,664.088,845.155,664.088,843.934z
				 M713.197,868.816h-13.281V805.16h-10.228v-10.228h10.228v-3.512c0-10.38,2.442-19.845,8.549-25.798
				c5.037-4.885,11.754-6.869,18.013-6.869c4.885,0,8.854,1.068,11.449,2.137l-1.832,10.381c-1.984-0.916-4.579-1.68-8.549-1.68
				c-11.448,0-14.349,9.923-14.349,21.371v3.97h17.86v10.228h-17.86V868.816z M800.317,834.316h-51.902
				c0.305,18.166,11.754,25.646,25.34,25.646c9.617,0,15.571-1.68,20.456-3.816l2.442,9.617c-4.732,2.137-12.976,4.731-24.729,4.731
				c-22.745,0-36.332-15.112-36.332-37.399s13.128-39.69,34.652-39.69c24.272,0,30.531,21.066,30.531,34.652
				C800.775,830.806,800.622,832.79,800.317,834.316z M748.567,824.699H787.8c0.152-8.396-3.512-21.677-18.624-21.677
				C755.437,803.022,749.636,815.388,748.567,824.699z"/>
			<g id="wp">
				<g>
					<path id="path-1" fill="#999999" d="M213.826,745.472h5.397c2.007,7.812,3.533,13.749,4.577,17.814
						c1.043,4.064,1.665,6.941,1.863,8.631h0.238l0.388-1.818c0.596-2.743,1.183-4.989,1.759-6.738l5.635-17.889h5.665l5.456,17.889
						c0.199,0.676,0.408,1.396,0.626,2.162c0.219,0.765,0.428,1.521,0.626,2.266s0.373,1.466,0.521,2.161
						c0.149,0.696,0.264,1.332,0.343,1.908h0.269c0.159-1.471,0.865-4.621,2.117-9.451l4.443-16.935h5.307l-8.795,31.753h-6.112
						l-5.426-17.859c-0.517-1.49-1.252-4.304-2.207-8.438h-0.238c-0.815,3.757-1.531,6.579-2.147,8.468l-5.695,17.829h-5.903
						L213.826,745.472z M265.734,791.446v-45.975h4.264l0.715,4.323h0.208c1.232-1.729,2.659-2.977,4.279-3.742
						c1.62-0.766,3.493-1.147,5.62-1.147c4.134,0,7.344,1.431,9.63,4.293c2.286,2.862,3.429,6.897,3.429,12.105
						c0,5.168-1.148,9.207-3.444,12.119s-5.521,4.368-9.675,4.368c-4.254,0-7.534-1.53-9.839-4.592h-0.328l0.119,1.192
						c0.139,1.511,0.208,2.853,0.208,4.025v13.029H265.734z M270.922,761.304c0,4.293,0.716,7.398,2.147,9.316
						s3.747,2.878,6.947,2.878c2.664,0,4.741-1.079,6.231-3.235s2.236-5.163,2.236-9.02c0-3.876-0.746-6.842-2.236-8.899
						s-3.607-3.086-6.351-3.086c-3.141,0-5.412,0.885-6.813,2.653c-1.401,1.77-2.122,4.562-2.162,8.378V761.304z"/>
				</g>
				<g>
					<path id="path-1_1_" fill="#666666" d="M213.826,745.472h5.397c2.007,7.812,3.533,13.749,4.577,17.814
						c1.043,4.064,1.665,6.941,1.863,8.631h0.238l0.388-1.818c0.596-2.743,1.183-4.989,1.759-6.738l5.635-17.889h5.665l5.456,17.889
						c0.199,0.676,0.408,1.396,0.626,2.162c0.219,0.765,0.428,1.521,0.626,2.266s0.373,1.466,0.521,2.161
						c0.149,0.696,0.264,1.332,0.343,1.908h0.269c0.159-1.471,0.865-4.621,2.117-9.451l4.443-16.935h5.307l-8.795,31.753h-6.112
						l-5.426-17.859c-0.517-1.49-1.252-4.304-2.207-8.438h-0.238c-0.815,3.757-1.531,6.579-2.147,8.468l-5.695,17.829h-5.903
						L213.826,745.472z M265.734,791.446v-45.975h4.264l0.715,4.323h0.208c1.232-1.729,2.659-2.977,4.279-3.742
						c1.62-0.766,3.493-1.147,5.62-1.147c4.134,0,7.344,1.431,9.63,4.293c2.286,2.862,3.429,6.897,3.429,12.105
						c0,5.168-1.148,9.207-3.444,12.119s-5.521,4.368-9.675,4.368c-4.254,0-7.534-1.53-9.839-4.592h-0.328l0.119,1.192
						c0.139,1.511,0.208,2.853,0.208,4.025v13.029H265.734z M270.922,761.304c0,4.293,0.716,7.398,2.147,9.316
						s3.747,2.878,6.947,2.878c2.664,0,4.741-1.079,6.231-3.235s2.236-5.163,2.236-9.02c0-3.876-0.746-6.842-2.236-8.899
						s-3.607-3.086-6.351-3.086c-3.141,0-5.412,0.885-6.813,2.653c-1.401,1.77-2.122,4.562-2.162,8.378V761.304z"/>
				</g>
			</g>
		</g>
	</g>
</g>
</svg>
